<?xml version="1.0" encoding="utf-8"?>
<!-- Generator: Adobe Illustrator 22.1.0, SVG Export Plug-In . SVG Version: 6.00 Build 0)  -->
<svg version="1.1" id="Layer_1" xmlns="http://www.w3.org/2000/svg" xmlns:xlink="http://www.w3.org/1999/xlink" x="0px" y="0px"
	 viewBox="0 0 60 72" style="enable-background:new 0 0 60 72;" xml:space="preserve">
<style type="text/css">
	.st0{fill:#FFFFFF;}
	.st1{fill:#00D66C;}
</style>
<path class="st0" d="M59,29.6C59,13.6,46.2,1,30,1S1,13.6,1,29.6c0,15.9,12.8,28.6,29,28.6C46.2,58.1,59,45.5,59,29.6z"/>
<path class="st1" d="M42.8,33.7h-1.6c-1.6,0-2.3,0.9-2.6,2.5c-0.4,3-2.9,5.1-6.1,5.1c-3.7,0-6.1-2.7-6.1-6.6v-9.2c0-0.4,0-0.7-0.1-1
	c0.4,0.2,0.8,0.2,1.2,0.2h8.6c1.6,0,2.6-0.9,2.6-2.5v-0.7c0-1.6-0.9-2.5-2.6-2.5h-4.8v-5.2c0-1.6-0.9-2.5-2.6-2.5h-1.2
	c-1.6,0-2.6,0.9-2.6,2.5v8.4c0,0.4,0,0.7,0.1,1C24.6,23,24.2,23,23.8,23h-8.6c-1.6,0-2.6,0.9-2.6,2.5v0.7c0,1.6,0.9,2.5,2.6,2.5H20
	v5.9c0,7.4,4.8,12.6,12.4,12.6c7,0,11.7-4.4,12.6-11.1C45.4,34.6,44.3,33.7,42.8,33.7L42.8,33.7z"/>
<path class="st0" d="M6.6,70.9h1.6v-3.4c0-1.2,0.7-1.6,1.5-1.6c0.5,0,0.8,0.1,1.1,0.4l0.7-1.2c-0.4-0.4-1-0.6-1.6-0.6
	c-0.8,0-1.5,0.3-1.9,1l0-0.9H6.6V70.9L6.6,70.9z M51.1,63.1c0-0.6-0.5-0.9-0.9-0.9c-0.5,0-0.9,0.3-0.9,0.9c0,0.6,0.5,0.9,0.9,0.9
	S51.1,63.7,51.1,63.1z M3.8,62.8L2.2,63v1.6H1v1.3h1.2v2.8c0,1.5,0.9,2.2,2.2,2.2c0.6,0,1-0.1,1.4-0.3l-0.4-1.3
	c-0.2,0.1-0.5,0.2-0.8,0.2c-0.5,0-0.8-0.3-0.8-0.9v-2.7h1.8v-1.3H3.8V62.8L3.8,62.8z M18.4,64.6H17l-0.1,0.9c-0.4-0.6-1.1-1-2.2-1
	c-1.8,0-3.3,1.1-3.3,3.3c0,2.2,1.5,3.3,3.3,3.3c1.1,0,1.8-0.4,2.2-1L17,71h1.4V64.6L18.4,64.6z M49.4,64.6v6.3H51v-6.3H49.4z
	 M15,69.6c-1.1,0-1.9-0.7-1.9-1.9c0-1.2,0.8-1.9,1.9-1.9s1.9,0.7,1.9,1.9C16.8,68.9,16,69.6,15,69.6z M40.7,64.6h-1.4l-0.1,0.9
	c-0.4-0.6-1.1-1-2.2-1c-1.8,0-3.3,1.1-3.3,3.3c0,2.2,1.5,3.3,3.3,3.3c1.1,0,1.8-0.4,2.2-1l0.1,0.9h1.4V64.6L40.7,64.6z M37.2,69.6
	c-1.1,0-1.9-0.7-1.9-1.9c0-1.2,0.8-1.9,1.9-1.9s1.9,0.7,1.9,1.9C39.1,68.9,38.3,69.6,37.2,69.6z M59,64.6h-1.4l-0.1,0.9
	c-0.4-0.6-1.1-1-2.2-1c-1.8,0-3.3,1.1-3.3,3.3c0,2.2,1.5,3.3,3.3,3.3c1.1,0,1.8-0.4,2.2-1l0.1,0.9H59V64.6L59,64.6z M55.5,69.6
	c-1.1,0-1.9-0.7-1.9-1.9c0-1.2,0.8-1.9,1.9-1.9c1.1,0,1.9,0.7,1.9,1.9S56.6,69.6,55.5,69.6z M45.9,70.9l2.7-6.3H47l-1.9,4.6
	l-1.9-4.6h-1.7l2.7,6.3H45.9L45.9,70.9z M19.9,70.9h1.6v-3.4c0-1.1,0.7-1.7,1.6-1.7s1.5,0.6,1.5,1.7v3.4h1.6v-3.6
	c0-1.9-1.2-2.8-2.7-2.8c-1,0-1.7,0.4-2.1,1l-0.1-0.9h-1.4V70.9L19.9,70.9z M30.2,71c2,0,2.8-0.9,2.8-2c0-1.4-1.4-1.8-2.4-1.9
	C30,67,29,66.9,29,66.3c0-0.5,0.5-0.6,1.2-0.6c0.6,0,1.2,0.2,1.7,0.6l0.8-1c-0.7-0.6-1.5-0.8-2.4-0.8c-1.4,0-2.9,0.5-2.9,2
	c0,1.4,1.3,1.8,2.4,1.9c0.7,0.1,1.6,0.1,1.6,0.8c0,0.4-0.5,0.6-1.2,0.6s-1.7-0.3-2.3-0.9l-0.8,1C28,70.8,29.2,71,30.2,71L30.2,71z"
	/>
</svg>
